<svg id="Capa_1" enable-background="new 0 0 512 512" height="512" viewBox="0 0 512 512" width="512" xmlns="http://www.w3.org/2000/svg"><g><path d="m376 30.999h-195-45c-74.443 0-136 60.557-136 135v90c0 69.375 53.588 126.68 121 134.165v75.835c0 6.064 3.647 11.543 9.258 13.857 5.533 2.309 12.023 1.073 16.348-3.252l34.394-34.394 51.211-51.211h143.789c74.443 0 136-60.557 136-135v-90c0-74.443-61.557-135-136-135z" fill="#97de3d"/><path d="m376 390.999c74.443 0 136-60.557 136-135v-90c0-74.443-61.557-135-136-135h-195v411.211l51.211-51.211z" fill="#59c36a"/><path d="m406 240.999h-15v-75c0-6.064-3.647-11.543-9.258-13.857-5.625-2.358-12.07-1.04-16.348 3.252l-30 30c-5.859 5.859-5.859 15.352 0 21.211s15.352 5.859 21.211 0l4.395-4.395v38.789h-15c-8.291 0-15 6.709-15 15s6.709 15 15 15h60c8.291 0 15-6.709 15-15s-6.709-15-15-15z" fill="#dfe7f4"/><path d="m181 120.999c-49.629 0-90 40.371-90 90 0 18.97 5.83 37.031 16.626 52.163l-12.231 12.231c-4.292 4.292-5.581 10.737-3.252 16.348 2.314 5.61 7.793 9.258 13.857 9.258h75c49.629 0 90-40.371 90-90s-40.371-90-90-90z" fill="#f0f7ff"/><path d="m271 210.999c0-49.629-40.371-90-90-90v180c49.629 0 90-40.371 90-90z" fill="#dfe7f4"/></g></svg>