<?xml version="1.0" ?><!DOCTYPE svg  PUBLIC '-//W3C//DTD SVG 1.0//EN'  'http://www.w3.org/TR/2001/REC-SVG-20010904/DTD/svg10.dtd'><svg height="110px" style="enable-background:new 0 0 110 110;" version="1.0" viewBox="0 0 110 110" width="110px" xml:space="preserve" xmlns="http://www.w3.org/2000/svg" xmlns:xlink="http://www.w3.org/1999/xlink"><g id="Artboard"/><g id="Multicolor"><circle cx="55" cy="55" r="55" style="fill:#25B7D3;"/><g><path d="M39,67c0,2.209,1.791,4,4,4h24l12,12V71h4c2.209,0,4-1.791,4-4V35c0-2.209-1.791-4-4-4H43    c-2.209,0-4,1.791-4,4V67z" style="fill:#6FDAF1;"/><path d="M71,59c0,2.209-1.791,4-4,4H43L31,75V63h-4c-2.209,0-4-1.791-4-4V27c0-2.209,1.791-4,4-4h40    c2.209,0,4,1.791,4,4V59z" style="fill:#F0F1F1;"/><path d="M70.335,24.798C69.62,23.716,68.395,23,67,23H27c-2.209,0-4,1.791-4,4v32c0,2.209,1.791,4,4,4h4    v1.134L70.335,24.798z" style="fill:#FFFFFF;"/><circle cx="35" cy="43" r="4" style="fill:#21B2D1;"/><circle cx="47" cy="43" r="4" style="fill:#21B2D1;"/><circle cx="59" cy="43" r="4" style="fill:#21B2D1;"/></g></g></svg>